<mxfile host="app.diagrams.net" agent="Mozilla/5.0 (Windows NT 10.0; Win64; x64) AppleWebKit/537.36 (KHTML, like Gecko) Chrome/130.0.0.0 Safari/537.36 Edg/130.0.0.0" version="24.8.4">
  <diagram name="Страница — 1" id="YuG9yiHHA3J2kzxvY_6H">
    <mxGraphModel dx="279" dy="611" grid="1" gridSize="10" guides="1" tooltips="1" connect="1" arrows="1" fold="1" page="1" pageScale="1" pageWidth="827" pageHeight="1169" math="0" shadow="0">
      <root>
        <mxCell id="0" />
        <mxCell id="1" parent="0" />
        <mxCell id="VzKQQS_w0HgwkTWzLqyn-1" value="" style="verticalLabelPosition=bottom;verticalAlign=top;html=1;shape=hexagon;perimeter=hexagonPerimeter2;arcSize=6;size=0.27;strokeWidth=2;fontFamily=Times New Roman;fontSize=12;" parent="1" vertex="1">
          <mxGeometry x="921" y="120" width="120" height="80" as="geometry" />
        </mxCell>
        <mxCell id="VzKQQS_w0HgwkTWzLqyn-2" value="&lt;span style=&quot;color: rgb(0, 0, 0); font-size: 12px; font-style: normal; font-variant-ligatures: normal; font-variant-caps: normal; font-weight: 400; letter-spacing: normal; orphans: 2; text-align: center; text-indent: 0px; text-transform: none; widows: 2; word-spacing: 0px; -webkit-text-stroke-width: 0px; white-space: normal; background-color: rgb(251, 251, 251); text-decoration-thickness: initial; text-decoration-style: initial; text-decoration-color: initial; float: none; display: inline !important;&quot;&gt;output:&amp;nbsp;arr2[i]&lt;/span&gt;" style="shape=parallelogram;html=1;strokeWidth=2;perimeter=parallelogramPerimeter;whiteSpace=wrap;rounded=1;arcSize=12;size=0.23;fontFamily=Times New Roman;fontSize=12;" parent="1" vertex="1">
          <mxGeometry x="921" y="240" width="120" height="80" as="geometry" />
        </mxCell>
        <mxCell id="VzKQQS_w0HgwkTWzLqyn-3" value="3" style="strokeWidth=2;html=1;shape=mxgraph.flowchart.start_2;whiteSpace=wrap;fontFamily=Times New Roman;fontSize=12;" parent="1" vertex="1">
          <mxGeometry x="961" y="40" width="40" height="40" as="geometry" />
        </mxCell>
        <mxCell id="VzKQQS_w0HgwkTWzLqyn-4" value="" style="endArrow=classic;html=1;rounded=0;exitX=0.5;exitY=1;exitDx=0;exitDy=0;exitPerimeter=0;entryX=0.5;entryY=0;entryDx=0;entryDy=0;fontFamily=Times New Roman;fontSize=12;" parent="1" source="VzKQQS_w0HgwkTWzLqyn-3" target="VzKQQS_w0HgwkTWzLqyn-1" edge="1">
          <mxGeometry width="50" height="50" relative="1" as="geometry">
            <mxPoint x="711" y="90" as="sourcePoint" />
            <mxPoint x="711" y="130" as="targetPoint" />
          </mxGeometry>
        </mxCell>
        <mxCell id="VzKQQS_w0HgwkTWzLqyn-5" value="" style="endArrow=classic;html=1;rounded=0;exitX=0.5;exitY=1;exitDx=0;exitDy=0;entryX=0.5;entryY=0;entryDx=0;entryDy=0;fontFamily=Times New Roman;fontSize=12;" parent="1" source="VzKQQS_w0HgwkTWzLqyn-1" target="VzKQQS_w0HgwkTWzLqyn-2" edge="1">
          <mxGeometry width="50" height="50" relative="1" as="geometry">
            <mxPoint x="991" y="90" as="sourcePoint" />
            <mxPoint x="991" y="130" as="targetPoint" />
          </mxGeometry>
        </mxCell>
        <mxCell id="VzKQQS_w0HgwkTWzLqyn-6" value="" style="endArrow=classic;html=1;rounded=0;exitX=0.5;exitY=1;exitDx=0;exitDy=0;entryX=0;entryY=0.5;entryDx=0;entryDy=0;fontFamily=Times New Roman;fontSize=12;" parent="1" source="VzKQQS_w0HgwkTWzLqyn-2" target="VzKQQS_w0HgwkTWzLqyn-1" edge="1">
          <mxGeometry width="50" height="50" relative="1" as="geometry">
            <mxPoint x="991" y="210" as="sourcePoint" />
            <mxPoint x="991" y="250" as="targetPoint" />
            <Array as="points">
              <mxPoint x="981" y="350" />
              <mxPoint x="861" y="350" />
              <mxPoint x="861" y="160" />
            </Array>
          </mxGeometry>
        </mxCell>
        <mxCell id="VzKQQS_w0HgwkTWzLqyn-7" value="" style="endArrow=classic;html=1;rounded=0;exitX=1;exitY=0.5;exitDx=0;exitDy=0;entryX=0.5;entryY=0;entryDx=0;entryDy=0;fontFamily=Times New Roman;fontSize=12;" parent="1" source="VzKQQS_w0HgwkTWzLqyn-1" target="VzKQQS_w0HgwkTWzLqyn-8" edge="1">
          <mxGeometry width="50" height="50" relative="1" as="geometry">
            <mxPoint x="991" y="210" as="sourcePoint" />
            <mxPoint x="1001" y="380" as="targetPoint" />
            <Array as="points">
              <mxPoint x="1101" y="160" />
              <mxPoint x="1101" y="370" />
              <mxPoint x="981" y="370" />
            </Array>
          </mxGeometry>
        </mxCell>
        <mxCell id="VzKQQS_w0HgwkTWzLqyn-8" value="" style="verticalLabelPosition=bottom;verticalAlign=top;html=1;shape=hexagon;perimeter=hexagonPerimeter2;arcSize=6;size=0.27;strokeWidth=2;fontFamily=Times New Roman;fontSize=12;" parent="1" vertex="1">
          <mxGeometry x="921" y="400" width="120" height="80" as="geometry" />
        </mxCell>
        <mxCell id="VzKQQS_w0HgwkTWzLqyn-9" value="" style="endArrow=classic;html=1;rounded=0;exitX=0.5;exitY=1;exitDx=0;exitDy=0;entryX=0.5;entryY=0;entryDx=0;entryDy=0;entryPerimeter=0;fontFamily=Times New Roman;fontSize=12;" parent="1" source="VzKQQS_w0HgwkTWzLqyn-8" target="VzKQQS_w0HgwkTWzLqyn-10" edge="1">
          <mxGeometry width="50" height="50" relative="1" as="geometry">
            <mxPoint x="991" y="370" as="sourcePoint" />
            <mxPoint x="1011" y="510" as="targetPoint" />
          </mxGeometry>
        </mxCell>
        <mxCell id="VzKQQS_w0HgwkTWzLqyn-10" value="arr2[i] != 0" style="strokeWidth=2;html=1;shape=mxgraph.flowchart.decision;whiteSpace=wrap;fontFamily=Times New Roman;fontSize=12;" parent="1" vertex="1">
          <mxGeometry x="921" y="520" width="120" height="120" as="geometry" />
        </mxCell>
        <mxCell id="VzKQQS_w0HgwkTWzLqyn-11" value="arr3[i] = arr1[i] / arr2[i]" style="rounded=1;whiteSpace=wrap;html=1;absoluteArcSize=1;arcSize=14;strokeWidth=2;fontFamily=Times New Roman;fontSize=12;" parent="1" vertex="1">
          <mxGeometry x="921" y="680" width="120" height="120" as="geometry" />
        </mxCell>
        <mxCell id="VzKQQS_w0HgwkTWzLqyn-12" value="" style="endArrow=classic;html=1;rounded=0;exitX=0.5;exitY=1;exitDx=0;exitDy=0;entryX=0.5;entryY=0;entryDx=0;entryDy=0;exitPerimeter=0;fontFamily=Times New Roman;fontSize=12;" parent="1" source="VzKQQS_w0HgwkTWzLqyn-10" target="VzKQQS_w0HgwkTWzLqyn-11" edge="1">
          <mxGeometry width="50" height="50" relative="1" as="geometry">
            <mxPoint x="711" y="530" as="sourcePoint" />
            <mxPoint x="711" y="570" as="targetPoint" />
          </mxGeometry>
        </mxCell>
        <mxCell id="VzKQQS_w0HgwkTWzLqyn-13" value="" style="endArrow=classic;html=1;rounded=0;exitX=0.5;exitY=1;exitDx=0;exitDy=0;entryX=0;entryY=0.5;entryDx=0;entryDy=0;fontFamily=Times New Roman;fontSize=12;" parent="1" source="VzKQQS_w0HgwkTWzLqyn-11" target="VzKQQS_w0HgwkTWzLqyn-8" edge="1">
          <mxGeometry width="50" height="50" relative="1" as="geometry">
            <mxPoint x="991" y="650" as="sourcePoint" />
            <mxPoint x="991" y="690" as="targetPoint" />
            <Array as="points">
              <mxPoint x="981" y="850" />
              <mxPoint x="861" y="850" />
              <mxPoint x="861" y="440" />
            </Array>
          </mxGeometry>
        </mxCell>
        <mxCell id="VzKQQS_w0HgwkTWzLqyn-14" value="" style="endArrow=classic;html=1;rounded=0;exitX=1;exitY=0.5;exitDx=0;exitDy=0;exitPerimeter=0;entryX=0;entryY=0.5;entryDx=0;entryDy=0;fontFamily=Times New Roman;fontSize=12;" parent="1" source="VzKQQS_w0HgwkTWzLqyn-10" target="VzKQQS_w0HgwkTWzLqyn-8" edge="1">
          <mxGeometry width="50" height="50" relative="1" as="geometry">
            <mxPoint x="711" y="570" as="sourcePoint" />
            <mxPoint x="761" y="520" as="targetPoint" />
            <Array as="points">
              <mxPoint x="1101" y="580" />
              <mxPoint x="1101" y="850" />
              <mxPoint x="861" y="850" />
              <mxPoint x="861" y="440" />
            </Array>
          </mxGeometry>
        </mxCell>
        <mxCell id="VzKQQS_w0HgwkTWzLqyn-15" value="" style="endArrow=classic;html=1;rounded=0;exitX=1;exitY=0.5;exitDx=0;exitDy=0;entryX=0.5;entryY=0;entryDx=0;entryDy=0;entryPerimeter=0;fontFamily=Times New Roman;fontSize=12;" parent="1" source="VzKQQS_w0HgwkTWzLqyn-8" target="VzKQQS_w0HgwkTWzLqyn-16" edge="1">
          <mxGeometry width="50" height="50" relative="1" as="geometry">
            <mxPoint x="751" y="720" as="sourcePoint" />
            <mxPoint x="1001" y="860" as="targetPoint" />
            <Array as="points">
              <mxPoint x="1141" y="440" />
              <mxPoint x="1141" y="870" />
              <mxPoint x="981" y="870" />
            </Array>
          </mxGeometry>
        </mxCell>
        <mxCell id="VzKQQS_w0HgwkTWzLqyn-16" value="5" style="strokeWidth=2;html=1;shape=mxgraph.flowchart.start_2;whiteSpace=wrap;fontFamily=Times New Roman;fontSize=12;" parent="1" vertex="1">
          <mxGeometry x="961" y="920" width="40" height="40" as="geometry" />
        </mxCell>
        <mxCell id="VzKQQS_w0HgwkTWzLqyn-17" value="5" style="strokeWidth=2;html=1;shape=mxgraph.flowchart.start_2;whiteSpace=wrap;fontFamily=Times New Roman;fontSize=12;" parent="1" vertex="1">
          <mxGeometry x="1361" y="40" width="40" height="40" as="geometry" />
        </mxCell>
        <mxCell id="VzKQQS_w0HgwkTWzLqyn-18" value="" style="verticalLabelPosition=bottom;verticalAlign=top;html=1;shape=hexagon;perimeter=hexagonPerimeter2;arcSize=6;size=0.27;strokeWidth=2;fontFamily=Times New Roman;fontSize=12;" parent="1" vertex="1">
          <mxGeometry x="1322" y="120" width="120" height="80" as="geometry" />
        </mxCell>
        <mxCell id="VzKQQS_w0HgwkTWzLqyn-19" value="" style="verticalLabelPosition=bottom;verticalAlign=top;html=1;shape=hexagon;perimeter=hexagonPerimeter2;arcSize=6;size=0.27;strokeWidth=2;fontFamily=Times New Roman;fontSize=12;" parent="1" vertex="1">
          <mxGeometry x="1322" y="240" width="120" height="80" as="geometry" />
        </mxCell>
        <mxCell id="VzKQQS_w0HgwkTWzLqyn-20" value="arr3[i] &amp;gt; arr3[j]" style="strokeWidth=2;html=1;shape=mxgraph.flowchart.decision;whiteSpace=wrap;fontFamily=Times New Roman;fontSize=12;" parent="1" vertex="1">
          <mxGeometry x="1321" y="360" width="120" height="120" as="geometry" />
        </mxCell>
        <mxCell id="VzKQQS_w0HgwkTWzLqyn-21" value="&lt;span style=&quot;font-size: 12px; text-align: start; caret-color: rgb(51, 144, 236); white-space-collapse: preserve; background-color: rgb(255, 255, 255);&quot;&gt;temp = arr3[i]&lt;/span&gt;&lt;span style=&quot;font-size: 12px; text-align: start; caret-color: rgb(51, 144, 236); white-space-collapse: preserve; background-color: rgb(255, 255, 255);&quot;&gt;&lt;br style=&quot;font-size: 12px;&quot;&gt;&lt;/span&gt;&lt;span style=&quot;font-size: 12px; text-align: start; caret-color: rgb(51, 144, 236); white-space-collapse: preserve; background-color: rgb(255, 255, 255);&quot;&gt;arr3[i] = arr3[j]&lt;/span&gt;&lt;span style=&quot;font-size: 12px; text-align: start; caret-color: rgb(51, 144, 236); white-space-collapse: preserve; background-color: rgb(255, 255, 255);&quot;&gt;&lt;br style=&quot;font-size: 12px;&quot;&gt;&lt;/span&gt;&lt;span style=&quot;font-size: 12px; text-align: start; caret-color: rgb(51, 144, 236); white-space-collapse: preserve; background-color: rgb(255, 255, 255);&quot;&gt;arr3[j] = temp&lt;/span&gt;" style="rounded=1;whiteSpace=wrap;html=1;absoluteArcSize=1;arcSize=14;strokeWidth=2;fontFamily=Times New Roman;fontSize=12;" parent="1" vertex="1">
          <mxGeometry x="1321" y="520" width="120" height="120" as="geometry" />
        </mxCell>
        <mxCell id="VzKQQS_w0HgwkTWzLqyn-22" value="output: array3" style="shape=parallelogram;html=1;strokeWidth=2;perimeter=parallelogramPerimeter;whiteSpace=wrap;rounded=1;arcSize=12;size=0.23;fontFamily=Times New Roman;fontSize=12;" parent="1" vertex="1">
          <mxGeometry x="1321" y="760" width="120" height="80" as="geometry" />
        </mxCell>
        <mxCell id="VzKQQS_w0HgwkTWzLqyn-23" value="" style="endArrow=classic;html=1;rounded=0;exitX=0.5;exitY=1;exitDx=0;exitDy=0;exitPerimeter=0;entryX=0.5;entryY=0;entryDx=0;entryDy=0;fontFamily=Times New Roman;fontSize=12;" parent="1" source="VzKQQS_w0HgwkTWzLqyn-17" target="VzKQQS_w0HgwkTWzLqyn-18" edge="1">
          <mxGeometry width="50" height="50" relative="1" as="geometry">
            <mxPoint x="881" y="680" as="sourcePoint" />
            <mxPoint x="931" y="630" as="targetPoint" />
          </mxGeometry>
        </mxCell>
        <mxCell id="VzKQQS_w0HgwkTWzLqyn-24" value="" style="endArrow=classic;html=1;rounded=0;exitX=0.5;exitY=1;exitDx=0;exitDy=0;entryX=0.5;entryY=0;entryDx=0;entryDy=0;fontFamily=Times New Roman;fontSize=12;" parent="1" source="VzKQQS_w0HgwkTWzLqyn-18" target="VzKQQS_w0HgwkTWzLqyn-19" edge="1">
          <mxGeometry width="50" height="50" relative="1" as="geometry">
            <mxPoint x="1391" y="90" as="sourcePoint" />
            <mxPoint x="1392" y="130" as="targetPoint" />
          </mxGeometry>
        </mxCell>
        <mxCell id="VzKQQS_w0HgwkTWzLqyn-25" value="" style="endArrow=classic;html=1;rounded=0;exitX=0.5;exitY=1;exitDx=0;exitDy=0;entryX=0.5;entryY=0;entryDx=0;entryDy=0;entryPerimeter=0;fontFamily=Times New Roman;fontSize=12;" parent="1" source="VzKQQS_w0HgwkTWzLqyn-19" target="VzKQQS_w0HgwkTWzLqyn-20" edge="1">
          <mxGeometry width="50" height="50" relative="1" as="geometry">
            <mxPoint x="1392" y="210" as="sourcePoint" />
            <mxPoint x="1392" y="250" as="targetPoint" />
          </mxGeometry>
        </mxCell>
        <mxCell id="VzKQQS_w0HgwkTWzLqyn-26" value="" style="endArrow=classic;html=1;rounded=0;exitX=0.5;exitY=1;exitDx=0;exitDy=0;entryX=0.5;entryY=0;entryDx=0;entryDy=0;exitPerimeter=0;fontFamily=Times New Roman;fontSize=12;" parent="1" source="VzKQQS_w0HgwkTWzLqyn-20" target="VzKQQS_w0HgwkTWzLqyn-21" edge="1">
          <mxGeometry width="50" height="50" relative="1" as="geometry">
            <mxPoint x="1392" y="330" as="sourcePoint" />
            <mxPoint x="1391" y="370" as="targetPoint" />
          </mxGeometry>
        </mxCell>
        <mxCell id="VzKQQS_w0HgwkTWzLqyn-27" value="" style="endArrow=classic;html=1;rounded=0;exitX=0.5;exitY=1;exitDx=0;exitDy=0;entryX=0;entryY=0.5;entryDx=0;entryDy=0;fontFamily=Times New Roman;fontSize=12;" parent="1" source="VzKQQS_w0HgwkTWzLqyn-21" target="VzKQQS_w0HgwkTWzLqyn-19" edge="1">
          <mxGeometry width="50" height="50" relative="1" as="geometry">
            <mxPoint x="1391" y="490" as="sourcePoint" />
            <mxPoint x="1291" y="380" as="targetPoint" />
            <Array as="points">
              <mxPoint x="1381" y="680" />
              <mxPoint x="1281" y="680" />
              <mxPoint x="1281" y="280" />
            </Array>
          </mxGeometry>
        </mxCell>
        <mxCell id="VzKQQS_w0HgwkTWzLqyn-28" value="" style="endArrow=classic;html=1;rounded=0;exitX=1;exitY=0.5;exitDx=0;exitDy=0;entryX=0;entryY=0.5;entryDx=0;entryDy=0;fontFamily=Times New Roman;fontSize=12;" parent="1" source="VzKQQS_w0HgwkTWzLqyn-19" target="VzKQQS_w0HgwkTWzLqyn-18" edge="1">
          <mxGeometry width="50" height="50" relative="1" as="geometry">
            <mxPoint x="1021" y="260" as="sourcePoint" />
            <mxPoint x="1071" y="210" as="targetPoint" />
            <Array as="points">
              <mxPoint x="1501" y="280" />
              <mxPoint x="1501" y="700" />
              <mxPoint x="1261" y="700" />
              <mxPoint x="1261" y="160" />
            </Array>
          </mxGeometry>
        </mxCell>
        <mxCell id="VzKQQS_w0HgwkTWzLqyn-29" value="" style="endArrow=classic;html=1;rounded=0;exitX=1;exitY=0.5;exitDx=0;exitDy=0;entryX=0;entryY=0.5;entryDx=0;entryDy=0;exitPerimeter=0;fontFamily=Times New Roman;fontSize=12;" parent="1" source="VzKQQS_w0HgwkTWzLqyn-20" target="VzKQQS_w0HgwkTWzLqyn-19" edge="1">
          <mxGeometry width="50" height="50" relative="1" as="geometry">
            <mxPoint x="1391" y="490" as="sourcePoint" />
            <mxPoint x="1391" y="530" as="targetPoint" />
            <Array as="points">
              <mxPoint x="1481" y="420" />
              <mxPoint x="1481" y="680" />
              <mxPoint x="1281" y="680" />
              <mxPoint x="1281" y="280" />
            </Array>
          </mxGeometry>
        </mxCell>
        <mxCell id="VzKQQS_w0HgwkTWzLqyn-30" value="" style="endArrow=classic;html=1;rounded=0;exitX=1;exitY=0.5;exitDx=0;exitDy=0;fontFamily=Times New Roman;fontSize=12;" parent="1" source="VzKQQS_w0HgwkTWzLqyn-18" target="VzKQQS_w0HgwkTWzLqyn-22" edge="1">
          <mxGeometry width="50" height="50" relative="1" as="geometry">
            <mxPoint x="1392" y="330" as="sourcePoint" />
            <mxPoint x="1391" y="370" as="targetPoint" />
            <Array as="points">
              <mxPoint x="1521" y="160" />
              <mxPoint x="1521" y="720" />
              <mxPoint x="1382" y="720" />
            </Array>
          </mxGeometry>
        </mxCell>
        <mxCell id="VzKQQS_w0HgwkTWzLqyn-31" value="7" style="strokeWidth=2;html=1;shape=mxgraph.flowchart.start_2;whiteSpace=wrap;fontFamily=Times New Roman;fontSize=12;" parent="1" vertex="1">
          <mxGeometry x="1361" y="920" width="40" height="40" as="geometry" />
        </mxCell>
        <mxCell id="VzKQQS_w0HgwkTWzLqyn-32" value="" style="endArrow=classic;html=1;rounded=0;exitX=0.5;exitY=1;exitDx=0;exitDy=0;entryX=0.5;entryY=0;entryDx=0;entryDy=0;entryPerimeter=0;fontFamily=Times New Roman;fontSize=12;" parent="1" source="VzKQQS_w0HgwkTWzLqyn-22" target="VzKQQS_w0HgwkTWzLqyn-31" edge="1">
          <mxGeometry width="50" height="50" relative="1" as="geometry">
            <mxPoint x="1541" y="660" as="sourcePoint" />
            <mxPoint x="1591" y="610" as="targetPoint" />
          </mxGeometry>
        </mxCell>
        <mxCell id="VzKQQS_w0HgwkTWzLqyn-33" value="4" style="strokeWidth=2;html=1;shape=mxgraph.flowchart.start_2;whiteSpace=wrap;fontFamily=Times New Roman;fontSize=12;" parent="1" vertex="1">
          <mxGeometry x="1160" y="40" width="40" height="40" as="geometry" />
        </mxCell>
        <mxCell id="VzKQQS_w0HgwkTWzLqyn-34" value="6" style="strokeWidth=2;html=1;shape=mxgraph.flowchart.start_2;whiteSpace=wrap;fontFamily=Times New Roman;fontSize=12;" parent="1" vertex="1">
          <mxGeometry x="1160" y="960" width="40" height="40" as="geometry" />
        </mxCell>
        <mxCell id="VzKQQS_w0HgwkTWzLqyn-35" value="" style="endArrow=classic;html=1;rounded=0;exitX=0.5;exitY=1;exitDx=0;exitDy=0;exitPerimeter=0;entryX=0.5;entryY=0;entryDx=0;entryDy=0;entryPerimeter=0;fontFamily=Times New Roman;fontSize=12;" parent="1" source="VzKQQS_w0HgwkTWzLqyn-33" target="VzKQQS_w0HgwkTWzLqyn-34" edge="1">
          <mxGeometry width="50" height="50" relative="1" as="geometry">
            <mxPoint x="1350" y="560" as="sourcePoint" />
            <mxPoint x="1400" y="510" as="targetPoint" />
          </mxGeometry>
        </mxCell>
        <mxCell id="VzKQQS_w0HgwkTWzLqyn-36" value="6" style="strokeWidth=2;html=1;shape=mxgraph.flowchart.start_2;whiteSpace=wrap;fontFamily=Times New Roman;fontSize=12;" parent="1" vertex="1">
          <mxGeometry x="1560" y="40" width="40" height="40" as="geometry" />
        </mxCell>
        <mxCell id="VzKQQS_w0HgwkTWzLqyn-37" value="8" style="strokeWidth=2;html=1;shape=mxgraph.flowchart.start_2;whiteSpace=wrap;fontFamily=Times New Roman;fontSize=12;" parent="1" vertex="1">
          <mxGeometry x="1560" y="960" width="40" height="40" as="geometry" />
        </mxCell>
        <mxCell id="VzKQQS_w0HgwkTWzLqyn-38" value="" style="endArrow=classic;html=1;rounded=0;exitX=0.5;exitY=1;exitDx=0;exitDy=0;exitPerimeter=0;entryX=0.5;entryY=0;entryDx=0;entryDy=0;entryPerimeter=0;fontFamily=Times New Roman;fontSize=12;" parent="1" source="VzKQQS_w0HgwkTWzLqyn-36" target="VzKQQS_w0HgwkTWzLqyn-37" edge="1">
          <mxGeometry width="50" height="50" relative="1" as="geometry">
            <mxPoint x="1750" y="560" as="sourcePoint" />
            <mxPoint x="1800" y="510" as="targetPoint" />
          </mxGeometry>
        </mxCell>
        <mxCell id="VzKQQS_w0HgwkTWzLqyn-39" value="i = 0; i &amp;lt; n;&lt;div style=&quot;font-size: 12px;&quot;&gt;i++&lt;/div&gt;" style="text;html=1;align=center;verticalAlign=middle;whiteSpace=wrap;rounded=0;fontFamily=Times New Roman;fontSize=12;" parent="1" vertex="1">
          <mxGeometry x="921" y="120" width="120" height="80" as="geometry" />
        </mxCell>
        <mxCell id="VzKQQS_w0HgwkTWzLqyn-40" value="i = 0; i &amp;lt; n;&lt;div style=&quot;font-size: 12px;&quot;&gt;i++&lt;/div&gt;" style="text;html=1;align=center;verticalAlign=middle;whiteSpace=wrap;rounded=0;fontFamily=Times New Roman;fontSize=12;" parent="1" vertex="1">
          <mxGeometry x="921" y="400" width="120" height="80" as="geometry" />
        </mxCell>
        <mxCell id="VzKQQS_w0HgwkTWzLqyn-41" value="j = i + 1; j &amp;lt; n;&lt;div style=&quot;font-size: 12px;&quot;&gt;j++&lt;/div&gt;" style="text;html=1;align=center;verticalAlign=middle;whiteSpace=wrap;rounded=0;fontFamily=Times New Roman;fontSize=12;" parent="1" vertex="1">
          <mxGeometry x="1322" y="240" width="120" height="80" as="geometry" />
        </mxCell>
        <mxCell id="VzKQQS_w0HgwkTWzLqyn-42" value="i = 0; i &amp;lt; n;&lt;div style=&quot;font-size: 12px;&quot;&gt;i++&lt;/div&gt;" style="text;html=1;align=center;verticalAlign=middle;whiteSpace=wrap;rounded=0;fontFamily=Times New Roman;fontSize=12;" parent="1" vertex="1">
          <mxGeometry x="1322" y="120" width="120" height="80" as="geometry" />
        </mxCell>
      </root>
    </mxGraphModel>
  </diagram>
</mxfile>
